<?xml version="1.0" encoding="utf-8"?>
<!-- Generator: Adobe Illustrator 19.0.0, SVG Export Plug-In . SVG Version: 6.00 Build 0)  -->
<svg version="1.1" id="layer" xmlns="http://www.w3.org/2000/svg" xmlns:xlink="http://www.w3.org/1999/xlink" x="0px" y="0px"
	 viewBox="-153 190 652 170" style="enable-background:new -153 190 652 170;" xml:space="preserve">
<style type="text/css">
	.st0{fill:#ABD3F1;}
	.st1{fill:#963594;}
	.st2{fill:#5B1D57;}
	.st3{fill:url(#SVGID_1_);}
	.st4{fill:url(#SVGID_2_);}
	.st5{fill:url(#SVGID_3_);}
	.st6{fill:none;stroke:#000000;stroke-width:1.5831;stroke-miterlimit:10;}
</style>
<path class="st0" d="M-41.1,274.4c0,24.7-20.1,44.8-45.1,44.8v-89.6C-61.2,229.6-41.1,249.7-41.1,274.4z"/>
<path class="st1" d="M-130.5,274.4c0-24.7,19.9-44.8,44.3-44.8v89.6C-110.6,319.2-130.5,299.1-130.5,274.4z"/>
<path class="st2" d="M-86,309.2c-19.2,0-34.8-15.5-34.8-34.8s15.5-34.8,34.8-34.8V309.2z"/>
<linearGradient id="SVGID_1_" gradientUnits="userSpaceOnUse" x1="-68.7586" y1="788.4445" x2="-68.7586" y2="718.9459" gradientTransform="matrix(1 0 0 1 0 -479.2283)">
	<stop  offset="0" style="stop-color:#9FCEEF"/>
	<stop  offset="1" style="stop-color:#53B2E5"/>
</linearGradient>
<path class="st3" d="M-51.3,274.4c0,19.2-15.5,34.8-34.8,34.8v-69.5C-66.9,239.7-51.3,255.2-51.3,274.4z"/>
<linearGradient id="SVGID_2_" gradientUnits="userSpaceOnUse" x1="-96.938" y1="718.9459" x2="-96.938" y2="788.4445" gradientTransform="matrix(1 0 0 1 0 -479.2283)">
	<stop  offset="0" style="stop-color:#C2E8F8"/>
	<stop  offset="1" style="stop-color:#24ABE2"/>
</linearGradient>
<path class="st4" d="M-86.2,309.2c-11.9,0-21.5-15.5-21.5-34.8s9.7-34.7,21.5-34.7V309.2z"/>
<radialGradient id="SVGID_3_" cx="-81.8229" cy="745.4742" r="20.8629" gradientTransform="matrix(1 0 0 1 0 -479.2283)" gradientUnits="userSpaceOnUse">
	<stop  offset="0.1399" style="stop-color:#FFFFFF"/>
	<stop  offset="1" style="stop-color:#FFF200"/>
</radialGradient>
<path class="st5" d="M-85.7,250.2c-0.6,0-1.1,0.2-1.6,0.3c-7.9,0.9-14.2,11.4-14.2,24.1c0,13.3,7,24.2,15.5,24.2l0,0
	c0.2,0-0.2,0,0,0c13.5,0,24.5-10.9,24.5-24.2S-72.4,250.2-85.7,250.2z"/>
<path d="M28,252.7l-5.9,10.1c-3.2-3-7.4-4.4-12.8-4.4c-5.1,0-9.2,1.7-12.2,5.1c-3,3.3-4.4,8.1-4.4,14.1c0,12.2,5.9,18.2,17.4,18.2
	c5.1,0,9.3-1.6,13.3-4.9l4.9,10.6c-4,2.4-7.3,4-10.3,4.6c-3,0.6-6.3,0.9-10.4,0.9c-8.9,0-16-2.5-21.2-7.8s-7.8-12.5-7.8-21.7
	s2.8-16.5,8.5-22.2c5.7-5.5,13.3-8.4,23.1-8.4C17.2,247,23.1,248.9,28,252.7z M35.4,276.9c0-8.9,2.5-16,7.6-21.5
	c5.1-5.5,11.9-8.4,20.1-8.4c8.9,0,15.7,2.7,20.4,8.1c4.7,5.4,7.3,12.7,7.3,21.8s-2.5,16.6-7.4,22c-4.9,5.4-11.7,8.2-20.3,8.2
	c-8.9,0-15.7-2.7-20.6-8.2C37.9,293.4,35.4,285.9,35.4,276.9z M49.5,276.9c0,12.8,4.6,19.2,13.8,19.2c4.3,0,7.6-1.6,10-4.9
	c2.5-3.3,3.6-8.1,3.6-14.1c0-12.5-4.6-18.8-13.8-18.8c-4.3,0-7.6,1.6-10,4.9C50.8,266.3,49.5,270.9,49.5,276.9z M139.1,305.9v-3.5
	c-1.1,1.3-3,2.4-5.7,3.2c-2.7,0.9-5.4,1.4-8.2,1.4c-8.1,0-14.4-2.5-19-7.6c-4.6-5.1-7-12.2-7-21.4c0-9.2,2.7-16.6,7.9-22.3
	c5.4-5.7,12-8.5,19.9-8.5c4.4,0,8.4,0.9,12,2.7v-23.3l13.5-3.2V306L139.1,305.9L139.1,305.9z M139.1,261.9c-2.8-2.4-5.9-3.5-9-3.5
	c-5.4,0-9.5,1.6-12.5,4.9c-3,3.3-4.4,8.1-4.4,14.2c0,12,5.9,18,17.4,18c1.3,0,2.8-0.3,4.7-1.1s3.2-1.6,3.6-2.4L139.1,261.9
	L139.1,261.9z M217.8,281.2h-41.3c0.3,4.6,1.9,8.2,4.7,10.8c2.8,2.5,6.8,3.8,11.7,3.8c6.2,0,10.8-1.6,14.1-4.7l5.2,10.3
	c-4.7,3.8-11.9,5.9-21.2,5.9c-8.9,0-15.8-2.5-20.9-7.8c-5.1-5.2-7.8-12.3-7.8-21.7c0-9.2,2.8-16.5,8.4-22.2
	c5.7-5.7,12.3-8.5,20.3-8.5c8.4,0,15.2,2.5,20.3,7.4c5.1,5.1,7.6,11.4,7.6,19.2C218.9,275.3,218.6,277.9,217.8,281.2z M176.9,271.1
	h28.5c-0.9-8.4-5.5-12.7-14.1-12.7C183.6,258.2,178.8,262.5,176.9,271.1z M242.2,304.5v24.2h-13.5v-80.6h13.5v4
	c3.3-3.3,7.6-4.9,12.5-4.9c18.4,0,27.7,10.1,27.7,30.4c0,9.5-2.5,16.8-7.6,21.8c-5.1,5.1-12,7.6-20.9,7.6
	C249.4,307,245.6,306.2,242.2,304.5z M242.2,262.2v30.4c2.4,2.1,5.4,3,8.5,3c6.2,0,10.8-1.4,13.5-4.4s4.1-7.6,4.1-14.1
	c0-6.8-1.4-11.7-4.1-14.4c-2.7-2.8-7.1-4.1-13.5-4.1C247.5,258.4,244.7,259.7,242.2,262.2z M296.5,226.6l13.5-3.2v65.1
	c0,7.1,2.1,11.4,6.3,12.8c-2.1,4-5.7,6-10.8,6c-6.2,0-9.2-4.3-9.2-12.8L296.5,226.6L296.5,226.6z M359,300.2
	c-1.3,2.1-3.3,3.6-6.3,4.9c-3,1.3-6.2,1.9-9.5,1.9c-6.2,0-11.1-1.6-14.7-4.7s-5.4-7.6-5.4-13.3c0-6.6,2.5-11.9,7.6-15.7
	c5.1-3.8,12.2-5.7,21.4-5.7c1.6,0,3.5,0.3,5.5,0.8c0-6.8-4.3-10.3-13-10.3c-5.1,0-9.3,0.8-12.8,2.5l-2.8-10.4
	c4.6-2.2,10.1-3.3,16.6-3.3c8.9,0,15.4,2.1,19.5,6c4.1,4,6.2,11.6,6.2,22.8V288c0,7.8,1.6,12.5,4.6,14.6c-1.1,1.9-2.4,3.2-3.8,3.6
	c-1.4,0.5-3,0.6-4.7,0.6c-1.9,0-3.6-0.8-5.2-2.2C360.4,303.2,359.5,301.9,359,300.2z M357.7,278.7c-2.4-0.5-4-0.6-5.2-0.6
	c-10.6,0-16,3.5-16,10.4c0,5.2,3,7.8,9,7.8c8.1,0,12.2-4.1,12.2-12.2L357.7,278.7L357.7,278.7z M411.4,315.2
	c-1.4,3.8-4.6,7.1-9.3,9.7c-4.7,2.5-10.3,3.8-16.6,3.8v-11.9c10.4,0,15.7-2.7,15.7-7.8c0-3.5-1.4-8.7-4.3-15.8l-18-45h13.9
	l15.8,40.1l14.2-40.1h13.9L411.4,315.2z"/>
<circle class="st6" cx="459.1" cy="236.9" r="10.4"/>
<path d="M461.9,241.5c0,0,1.4-1.1,1.7-1.3c0,0,1.4-0.8,1.4-0.9c0,0,0.8-0.3,0.3-0.9c0,0-0.8-0.8-2.2,0.5c0,0-0.3,0.3-0.5,0.3
	c0,0-1.3,0.9-1.4,0.8c0,0-0.5-0.8,0-1.4c0,0,0.6-0.9,0.6-1.1c0,0,0.2-0.3,0.5-0.5c0,0,0.6-0.8,0.8-0.9c0,0,0.9-1.3,0.9-1.4
	c0,0,0.2-0.3,0.3-0.5c0,0,0.9-1.4,0.5-1.7c0,0-0.5-0.8-1.3,0.5l-0.3,0.5c0,0-0.3,0.5-0.5,0.6c0,0-0.6,0.6-0.8,0.9
	c0,0-0.8,0.8-0.9,1.1c0,0-0.3,0.3-0.5,0.3c0,0-0.3,0.2,0.2-0.5c0,0,0.8-1.3,0.8-1.4c0,0,0.9-1.6,0.8-1.7l0.6-1.3
	c0,0,0.5-0.8-0.3-1.1c0,0-0.6,0-0.9,0.9l-0.6,1.1c0,0-0.8,1.1-0.8,1.3c0,0-1.1,1.6-1.3,1.9c0,0-0.5,0.3-0.2-0.5c0,0,0.3-0.9,0.3-1.4
	c0,0,0.5-1.1,0.3-1.3c0,0,0.3-0.3,0.3-0.6c0,0,0.9-1.3,0.3-1.6c0,0-0.5-0.5-1.1,0.5c0,0-0.5,0.8-0.5,1.1c0,0-0.9,1.6-0.9,1.9
	c0,0-0.6,1.9-0.8,1.9c0,0-0.6,0.2-0.5-0.5c0,0,0-0.5,0-0.8c0,0,0-0.9,0-1.3c0,0,0-0.6,0.2-0.9c0,0,0.3-1.3-0.2-1.4
	c0,0-0.8-0.3-0.9,1.7c0,0-0.2,1.3-0.2,1.6c0,0-0.2,1.7-0.2,2.1c0,0-0.8,2.7-0.9,2.7c0,0-0.2,1.3-0.2,2.2c0,0,0.2,1.3,1.6,1.7
	l0.8,0.6c0,0,1.4,0.6,2.2,0.2C458.1,243.5,460.6,242.7,461.9,241.5z"/>
</svg>