<?xml version="1.0" encoding="utf-8"?>
<!-- Generator: Adobe Illustrator 28.2.0, SVG Export Plug-In . SVG Version: 6.00 Build 0)  -->
<svg version="1.1"
	 id="svg20" xmlns:svg="http://www.w3.org/2000/svg" xmlns:rdf="http://www.w3.org/1999/02/22-rdf-syntax-ns#" xmlns:dc="http://purl.org/dc/elements/1.1/" xmlns:cc="http://creativecommons.org/ns#"
	 xmlns="http://www.w3.org/2000/svg" xmlns:xlink="http://www.w3.org/1999/xlink" x="0px" y="0px" viewBox="0 0 267.5 65.3"
	 style="enable-background:new 0 0 267.5 65.3;" xml:space="preserve">
<style type="text/css">
	.st0{fill:#FFFFFF;}
</style>
<path id="path18" class="st0" d="M263,56.4c-2.4,0-4.4,2-4.4,4.5c0,2.4,2,4.4,4.5,4.4s4.4-2,4.4-4.5C267.5,58.4,265.5,56.4,263,56.4
	L263,56.4 M263,64.7c-2.1,0-3.9-1.7-3.9-3.8c0-2.1,1.7-3.9,3.8-3.9c2.1,0,3.9,1.7,3.9,3.8v0.1c0,2.1-1.6,3.8-3.7,3.9L263,64.7
	 M246.1,55.2h-9.6v-15c0-3.6-0.1-8.2-5-8.2c-5,0-5.8,3.9-5.8,7.9v15.3h-9.6V24.3h9.2v4.2h0.1c1.9-3.2,5.4-5.1,9.1-5
	c9.7,0,11.5,6.4,11.5,14.7L246.1,55.2z M205.3,20.1c-3.1,0-5.6-2.5-5.6-5.6s2.5-5.6,5.6-5.6c3.1,0,5.6,2.5,5.6,5.6
	S208.4,20.1,205.3,20.1C205.3,20.1,205.3,20.1,205.3,20.1 M210.1,55.2h-9.6V24.3h9.6V55.2z M250.9,0h-55.2c-2.6,0-4.7,2.1-4.8,4.7
	v55.4c0,2.6,2.2,4.7,4.8,4.7h55.2c2.6,0,4.8-2.1,4.8-4.7V4.7C255.6,2.1,253.5,0,250.9,0 M164.8,31.7c-4.8,0-7.7,3.2-7.7,7.9
	s2.9,7.9,7.7,7.9s7.7-3.2,7.7-7.9S169.6,31.7,164.8,31.7 M181.3,55.2h-8.8v-4.1h-0.1c-2.2,3-5.8,4.8-9.5,4.9
	c-9.2,0-15.3-6.7-15.3-16.1c0-8.6,5.4-16.6,14.2-16.6c4,0,7.7,1.1,9.9,4.1h0.1V9.6h9.6L181.3,55.2z M135.1,36.1
	c0.1-3.2-2.4-5.8-5.6-5.9c-0.1,0-0.2,0-0.3,0c-3.5-0.2-6.5,2.4-6.8,5.9H135.1z M143.3,49.8c-3.2,3.9-8.1,6.2-13.1,6.2
	c-9.6,0-17.3-6.4-17.3-16.3s7.7-16.3,17.3-16.3c9,0,14.6,6.4,14.6,16.3v3h-22.3c0.6,3.5,3.7,6.1,7.2,6c2.8,0,5.4-1.4,6.9-3.8
	L143.3,49.8z M47.8,24.3h9.2v4.2h0.1c1.9-3.2,5.4-5.1,9.1-5c9.7,0,11.5,6.4,11.5,14.7v17h-9.6v-15c0-3.6-0.1-8.2-5-8.2
	c-5,0-5.8,3.9-5.8,7.9v15.3h-9.6L47.8,24.3z M82.7,9.6h9.6v27.3l10.9-12.6h11.8l-12.6,14.3l12.3,16.6h-12.1L92.4,39.9h-0.1v15.3
	h-9.6L82.7,9.6z M32.9,24.3h9.6v30.9h-9.6L32.9,24.3z M37.7,8.9c3.1,0,5.6,2.5,5.6,5.6c0,3.1-2.5,5.6-5.6,5.6
	c-3.1,0-5.6-2.5-5.6-5.6C32.1,11.4,34.6,8.9,37.7,8.9C37.7,8.9,37.7,8.9,37.7,8.9 M0,9.6h10V46h18.5v9.2H0V9.6z M263.7,61.1
	c0.7,0,1.2-0.5,1.2-1.2c0,0,0-0.1,0-0.1c0-0.9-0.5-1.3-1.7-1.3h-1.8v4.7h0.7v-2.1h0.8l0,0l1.3,2h0.7L263.7,61.1L263.7,61.1z
	 M263,60.6h-0.8V59h1c0.5,0,1.1,0.1,1.1,0.8C264.3,60.6,263.7,60.6,263,60.6"/>
</svg>
